<svg xmlns="http://www.w3.org/2000/svg" width="1440" height="1000" viewBox="0 0 1440 1000" role="img" aria-label="Inicio screenshot">
  <rect width="1440" height="1000" fill="#eef2f7"/>
  <rect width="300" height="1000" fill="#111827"/>
  <circle cx="72" cy="66" r="27" fill="#fbbf24"/>
  <text x="72" y="73" text-anchor="middle" font-family="Arial" font-size="18" font-weight="800" fill="#111827">GS</text>
  <text x="116" y="55" font-family="Arial" font-size="12" font-weight="800" fill="#f59e0b" letter-spacing="2">GORRITI</text>
  <text x="116" y="83" font-family="Arial" font-size="30" font-weight="800" fill="#ffffff">Stock</text>
  
    <rect x="22" y="132" width="256" height="54" rx="18" fill="#ffffff20" stroke="#ffffff22"/>
    <text x="58" y="166" font-family="Arial" font-size="18" font-weight="700" fill="#ffffff">Inicio</text>
    <rect x="22" y="198" width="256" height="54" rx="18" fill="transparent" stroke="transparent"/>
    <text x="58" y="232" font-family="Arial" font-size="18" font-weight="700" fill="#ffffff">Inventario</text>
    <rect x="22" y="264" width="256" height="54" rx="18" fill="transparent" stroke="transparent"/>
    <text x="58" y="298" font-family="Arial" font-size="18" font-weight="700" fill="#ffffff">Nueva venta</text>
    <rect x="22" y="330" width="256" height="54" rx="18" fill="transparent" stroke="transparent"/>
    <text x="58" y="364" font-family="Arial" font-size="18" font-weight="700" fill="#ffffff">Ventas</text>
    <rect x="22" y="396" width="256" height="54" rx="18" fill="transparent" stroke="transparent"/>
    <text x="58" y="430" font-family="Arial" font-size="18" font-weight="700" fill="#ffffff">Configuración</text>
  <text x="334" y="55" font-family="Arial" font-size="12" font-weight="800" fill="#f59e0b" letter-spacing="2">PANEL OPERATIVO</text>
  <text x="334" y="105" font-family="Arial" font-size="52" font-weight="900" fill="#111827">Inicio</text>
  <rect x="1218" y="46" width="138" height="42" rx="21" fill="#ecfdf5" stroke="#a7f3d0"/>
  <text x="1242" y="73" font-family="Arial" font-size="16" font-weight="800" fill="#047857">● En línea</text>
  <rect x="334" y="148" width="1022" height="260" rx="30" fill="#ffffff" stroke="#e2e8f0"/>
  <text x="382" y="222" font-family="Arial" font-size="15" font-weight="800" fill="#f59e0b" letter-spacing="2">RESUMEN MOCKEADO</text>
  <text x="382" y="288" font-family="Arial" font-size="42" font-weight="900" fill="#111827">Bienvenido al tablero de Gorriti Stock</text>
  <text x="382" y="338" font-family="Arial" font-size="24" fill="#64748b">Ventas de hoy · $ 128.450</text>
  <rect x="382" y="596" width="450" height="160" rx="26" fill="#ffffff" stroke="#e2e8f0"/>
  <text x="422" y="682" font-family="Arial" font-size="28" font-weight="900" fill="#111827">Stock bajo · Ventas recientes</text>
</svg>